<svg xmlns="http://www.w3.org/2000/svg" xmlns:xlink="http://www.w3.org/1999/xlink" viewBox="0 0 512 512"><defs><style>.a{fill:none;opacity:0;}.b{fill:url(#a);}</style><linearGradient id="a" x1="37.8192" y1="152.584" x2="411.7308" y2="368.462" gradientUnits="userSpaceOnUse"><stop offset="0" stop-color="#2ca5e9"/><stop offset="1" stop-color="#01fff0"/></linearGradient></defs><title>KhaslanaMarketLogo</title><rect class="a" width="512" height="512"/><path class="b" d="M248.5253,235.4634,196.1315,91.5125a174.1589,174.1589,0,0,0-27.6435,12.9122L245.0709,237.07A21.7472,21.7472,0,0,1,248.5253,235.4634Zm-9.2765,6.4806L71.6786,101.3359A241.2133,241.2133,0,0,0,47.5839,135.671l189.4863,109.4A21.9042,21.9042,0,0,1,239.2488,241.944ZM234.1248,256a21.932,21.932,0,0,1,.3508-3.7953l-107.7484-18.999A132.06,132.06,0,0,0,124.75,256Zm33.2692-64.6188A65.9459,65.9459,0,0,0,256,190.375v43.75a21.9231,21.9231,0,0,1,3.7953.3508Zm9.1424,57.1442,82.2683-29.9433a108.85,108.85,0,0,0-8.07-17.2772L274.9294,245.071A21.7483,21.7483,0,0,1,276.5364,248.5254Zm-6.4806-9.2764,56.2461-67.0315a109.65,109.65,0,0,0-15.6068-10.9521L266.929,237.0705A21.9092,21.9092,0,0,1,270.0558,239.249Zm-6.5811,37.2877,7.4922,20.5843a43.523,43.523,0,0,0,6.9054-3.237L266.9291,274.93A21.73,21.73,0,0,1,263.4747,276.5367Zm-28.0116-13.0619L91.5125,315.8685a174.1589,174.1589,0,0,0,12.9122,27.6435L237.07,266.9292A21.7436,21.7436,0,0,1,235.4631,263.4748ZM277.8748,256v0a21.9306,21.9306,0,0,1-.3508,3.7951l129.2943,22.798A154.0668,154.0668,0,0,0,409.125,256Zm-5.1235,14.056,100.5442,84.3666a153.5061,153.5061,0,0,0,15.3329-21.8495L274.93,266.929A21.9186,21.9186,0,0,1,272.7513,270.056Zm-20.5466,7.4684-15.2,86.2029A110.05,110.05,0,0,0,256,365.375v-87.5h0A21.93,21.93,0,0,1,252.2047,277.5244Zm-10.2609-4.7729-56.2457,67.031a109.6582,109.6582,0,0,0,15.6068,10.9521L245.0708,274.93A21.9192,21.9192,0,0,1,241.9438,272.7515ZM256,250.5314A5.4688,5.4688,0,1,0,261.4686,256,5.4688,5.4688,0,0,0,256,250.5314Z"/></svg>